<svg xmlns="http://www.w3.org/2000/svg" viewBox="0 0 512 512">
  <defs>
    <linearGradient id="bg" x1="0" y1="0" x2="1" y2="1">
      <stop offset="0" stop-color="#e9f4ff"/>
      <stop offset="1" stop-color="#9fc5ef"/>
    </linearGradient>
    <linearGradient id="red" x1="0" y1="0" x2="1" y2="1">
      <stop offset="0" stop-color="#ff5266"/>
      <stop offset="1" stop-color="#b81224"/>
    </linearGradient>
    <filter id="shadow" x="-30%" y="-30%" width="160%" height="160%">
      <feDropShadow dx="0" dy="18" stdDeviation="14" flood-color="#000" flood-opacity="0.35"/>
    </filter>
  </defs>
  <rect x="48" y="44" width="416" height="424" rx="64" fill="#092642"/>
  <g filter="url(#shadow)">
    <path d="M164 86h168c22 0 40 18 40 40v282c0 22-18 40-40 40H164c-22 0-40-18-40-40V126c0-22 18-40 40-40z" fill="url(#bg)"/>
    <path d="M188 72h136c15 0 28 13 28 28v30H160v-30c0-15 13-28 28-28z" fill="url(#red)"/>
    <rect x="174" y="166" width="164" height="18" rx="9" fill="#0d2d4d" opacity=".9"/>
    <rect x="174" y="210" width="136" height="18" rx="9" fill="#0d2d4d" opacity=".65"/>
    <rect x="174" y="254" width="150" height="18" rx="9" fill="#0d2d4d" opacity=".65"/>
    <path d="M349 326l-58 58c-20 20-52 20-72 0l-9-9 34-34 10 10c2 2 6 2 8 0l58-58c-8-21-4-46 13-63 18-18 44-23 67-14l-43 43 30 30 43-43c9 23 4 49-14 67-18 17-43 22-67 13z" fill="url(#red)"/>
  </g>
</svg>